<?xml version="1.0" encoding="UTF-8"?>
<svg id="Camada_1" xmlns="http://www.w3.org/2000/svg" version="1.1" viewBox="0 0 316.6 60.14">
  <!-- Generator: Adobe Illustrator 30.0.0, SVG Export Plug-In . SVG Version: 2.1.1 Build 123)  -->
  <defs>
    <style>
      .st0 {
        fill: #171814;
      }

      .st1 {
        fill: #f4c500;
      }

      .st2 {
        fill-rule: evenodd;
      }

      .st2, .st3 {
        fill: #2c4792;
      }

      .st4 {
        fill: #47ac34;
      }

      .st5 {
        fill: #db0d15;
      }

      .st6 {
        fill: #ffd200;
      }

      .st7 {
        fill: #419d35;
      }

      .st8 {
        fill: #44519f;
      }

      .st9 {
        fill: #3a2b2a;
      }

      .st10 {
        fill: #464540;
      }
    </style>
  </defs>
  <path class="st7" d="M7.07,42.62c-.4-.17-.85-.26-.88-.24l.54-.38c.29-.22.7-.54.97-.84h-1.83c-.44.42-.9.83-1.4,1.18l-.1,1.13c.83-.02,2.16.1,2.14,1.21-.01.73-.64,1.06-1.3,1.12-.73-.04-1.48-.48-1.99-.92l-.4,1.61.02.02c1.14.93,3.13,1.06,4.35.21l.14-.09c.67-.48,1.05-1.3,1.05-2.11,0-.45-.16-.91-.44-1.28-.24-.31-.54-.48-.88-.63"/>
  <path class="st7" d="M7.88,40.94c.31-.45.38-.93.36-1.47H3.49l-.08.31-.29,1.17h4.76Z"/>
  <path class="st2" d="M16.3,36.94c-2.45,0-4.36-1.74-4.36-3.89v-7.33h3.29v7.64c0,.96.84,1.73,1.91,1.73,1.01,0,1.92-.77,1.92-1.73v-7.64h1.55v7.33c0,2.15-1.91,3.89-4.3,3.89M7.03,32.52l-2.03-.6c-1.25-.42-2.15-1.67-2.15-3.05,0-1.8,1.43-3.22,3.23-3.22h4.01v1.42h-2.81c-.54,0-1.01.42-1.01,1.02,0,.36.23.78.65.89l1.97.66c1.32.42,2.03,1.79,2.03,3.35,0,1.97-1.55,3.59-3.53,3.59H3.15v-1.62h3.65c.53,0,1.13-.53,1.13-1.25,0-.54-.36-1.02-.9-1.2M25.69,32.52l-2.04-.6c-1.32-.42-2.21-1.67-2.21-3.05,0-1.8,1.43-3.22,3.23-3.22h4v1.42h-2.81c-.54,0-1.02.42-1.02,1.02,0,.36.24.78.66.89l1.97.66c1.37.42,2.1,1.79,2.1,3.35,0,1.97-1.62,3.59-3.6,3.59h-4.24v-1.62h3.65c.54,0,1.14-.53,1.14-1.25,0-.54-.3-1.02-.83-1.2"/>
  <path class="st2" d="M55.64,37.71h1.4v8.92c-.17-.93-.69-6.35-.63-8.09-.18-.18-.77-.83-.77-.83M45.19,28.19h0l-1.49-1.52c-1.99.03-8.39-.65-10.45-1.01v11.47c10.28,1.01,15.67,1.27,21.69,1.08h.1l-9.85-10.02ZM45.26,24.99h11.48v-11.12h-11.48v11.12ZM36.35,25.66c.76.06,7.48.65,7.93.65l10.64,10.82h13.67v-11.47h-32.24ZM55.69,38.83s-6.13.42-11.35-.06c.11,6.34.87,9.6.99,10.3h11.4c-.54-3.33-.98-8.72-1.05-10.24"/>
  <path class="st1" d="M13.1,43.55c-.6-1.04-1.74-1.31-2.7-1.88l-1.34-.71h3.99l.33-1.47h-4.2l-.6,3.13,3.08,1.66c.36.26.56.67.62,1.11.06.42.01.87-.28,1.2.51-.25.99-.56,1.23-1.1.26-.58.18-1.38-.14-1.93"/>
  <path class="st1" d="M11.53,44.47l-2.91,1.46c.01.1.07.17.11.25.22.37.5.72.72,1.1l.39-.02c.72-.09,1.79-.26,2.09-1.03.21-.56.11-1.39-.4-1.76"/>
  <path class="st3" d="M26.48,43.07v-3.52l.09-.09h1.55l.09.09v6.99l-.09.09c-.13,0-.67.07-1.11-.09-.3-.11-.52-.35-.73-.59-.2-.23-.39-.45-.59-.68-.39-.47-.76-.95-1.12-1.44-.22-.29-.43-.59-.68-.86l-.16.06v3.42l-.09.14c-.13.08-1.46.08-1.58,0l-.12-.15v-.05s0-6.58,0-6.58v-.21l.06-.09c.54-.15,1.01-.04,1.43.32,1.12.96,2.01,2.34,2.85,3.27l.03.03.15-.06Z"/>
  <path class="st3" d="M36.47,43.06c0,2.07-1.68,3.75-3.75,3.75s-3.75-1.68-3.75-3.75,1.68-3.75,3.75-3.75,3.75,1.68,3.75,3.75M32.47,40.96c-.95.11-1.34.81-1.41,1.7-.11,1.46.31,2.72,2.02,2.5,1.26-.16,1.34-1.72,1.24-2.7-.11-1-.85-1.61-1.85-1.49"/>
  <path class="st3" d="M21.53,46.63h-2c-.05-.19-.32-1.1-.46-1.15l-2.87.02-.42,1.13h-1.84l2.75-6.87c.23-.36.85-.33,1.23-.3.38.03.65.13.84.47l2.76,6.69ZM18.53,43.89l-.79-2.21-.89,2.21h1.69Z"/>
  <path class="st3" d="M41.65,41.36c-.66-.25-1.36-.5-2.08-.42-.7.08-.94.67-.24,1.03,1.16.59,2.58.52,2.74,2.27.27,2.95-3.48,3.27-5.11,1.58v-1.5l.34.17c.12.06.23.12.35.17.7.33,1.47.54,2.25.45.48-.06.4-.64.11-.87-.89-.72-2.73-.71-2.94-2.33-.35-2.65,2.82-3.2,4.58-2v1.44Z"/>
  <path class="st0" d="M199.06,52.72c.59,0,1.09.21,1.48.62.39.42.59.93.59,1.54s-.2,1.12-.59,1.54c-.39.42-.89.63-1.48.63h-1.7v-4.34h1.7ZM199.06,56.38c.41,0,.74-.14,1-.42.26-.28.39-.64.39-1.07s-.13-.79-.39-1.07c-.26-.28-.59-.42-1-.42h-.99v2.97h.99Z"/>
  <path class="st0" d="M206.22,56.49c-.44.44-.97.65-1.59.65s-1.16-.22-1.6-.65c-.44-.44-.65-.97-.65-1.6s.22-1.16.65-1.6c.44-.44.97-.65,1.6-.65s1.16.22,1.59.65c.44.44.65.97.65,1.6s-.22,1.16-.65,1.6M203.53,56c.29.3.66.44,1.09.44s.8-.15,1.09-.44c.3-.29.44-.67.44-1.11s-.15-.82-.44-1.11c-.29-.3-.66-.44-1.09-.44s-.8.15-1.09.44c-.3.3-.44.67-.44,1.11s.15.82.44,1.11"/>
  <polygon class="st0" points="211.4 56.38 213.16 56.38 213.16 57.06 210.69 57.06 210.69 52.72 211.4 52.72 211.4 56.38"/>
  <path class="st0" d="M217.45,57.06l-.31-.87h-1.84l-.3.87h-.78l1.57-4.34h.86l1.57,4.34h-.77ZM215.53,55.52h1.37l-.68-1.96-.69,1.96Z"/>
  <path class="st0" d="M221.19,52.72c.59,0,1.09.21,1.48.62.4.42.59.93.59,1.54s-.2,1.12-.59,1.54c-.39.42-.89.63-1.48.63h-1.7v-4.34h1.7ZM221.19,56.38c.41,0,.74-.14,1-.42s.39-.64.39-1.07-.13-.79-.39-1.07c-.26-.28-.59-.42-1-.42h-.99v2.97h.99Z"/>
  <path class="st0" d="M228.35,56.49c-.44.44-.97.65-1.6.65s-1.16-.22-1.59-.65c-.44-.44-.65-.97-.65-1.6s.22-1.16.65-1.6c.44-.44.97-.65,1.59-.65s1.16.22,1.6.65c.44.44.65.97.65,1.6s-.22,1.16-.65,1.6M225.66,56c.29.3.66.44,1.09.44s.8-.15,1.09-.44c.3-.29.44-.67.44-1.11s-.15-.82-.44-1.11c-.29-.3-.66-.44-1.09-.44s-.8.15-1.09.44c-.3.3-.44.67-.44,1.11s.15.82.44,1.11"/>
  <path class="st0" d="M234.52,52.72c.59,0,1.09.21,1.48.62.39.42.59.93.59,1.54s-.2,1.12-.59,1.54c-.39.42-.89.63-1.48.63h-1.7v-4.34h1.7ZM234.52,56.38c.41,0,.74-.14,1-.42.26-.28.39-.64.39-1.07s-.13-.79-.39-1.07c-.26-.28-.59-.42-1-.42h-.99v2.97h.99Z"/>
  <path class="st0" d="M241.67,56.49c-.44.44-.97.65-1.59.65s-1.16-.22-1.6-.65c-.44-.44-.65-.97-.65-1.6s.22-1.16.65-1.6c.44-.44.97-.65,1.6-.65s1.16.22,1.59.65c.44.44.65.97.65,1.6s-.22,1.16-.65,1.6M238.99,56c.29.3.66.44,1.09.44s.8-.15,1.09-.44c.3-.29.44-.67.44-1.11s-.15-.82-.44-1.11c-.29-.3-.66-.44-1.09-.44s-.8.15-1.09.44c-.3.3-.44.67-.44,1.11s.15.82.44,1.11"/>
  <path class="st0" d="M247.74,52.72c.41,0,.75.14,1.03.41.27.27.41.61.41,1.02s-.14.74-.41,1.01c-.27.28-.62.41-1.03.41h-.89v1.49h-.71v-4.34h1.6ZM247.74,54.9c.21,0,.38-.07.52-.21.14-.14.21-.32.21-.54s-.07-.4-.21-.54c-.14-.14-.31-.21-.52-.21h-.89v1.51h.89Z"/>
  <path class="st0" d="M254.19,56.49c-.44.44-.97.65-1.59.65s-1.16-.22-1.6-.65c-.44-.44-.65-.97-.65-1.6s.22-1.16.65-1.6c.44-.44.97-.65,1.6-.65s1.16.22,1.59.65c.44.44.65.97.65,1.6s-.22,1.16-.65,1.6M251.5,56c.29.3.66.44,1.09.44s.8-.15,1.09-.44c.3-.29.44-.67.44-1.11s-.15-.82-.44-1.11c-.29-.3-.66-.44-1.09-.44s-.8.15-1.09.44c-.3.3-.44.67-.44,1.11s.15.82.44,1.11"/>
  <polygon class="st0" points="257.22 57.06 255.71 52.72 256.49 52.72 257.64 56.19 258.8 52.72 259.58 52.72 258.07 57.06 257.22 57.06"/>
  <path class="st0" d="M264.29,56.49c-.44.44-.97.65-1.6.65s-1.16-.22-1.59-.65c-.44-.44-.65-.97-.65-1.6s.22-1.16.65-1.6c.44-.44.97-.65,1.59-.65s1.16.22,1.6.65c.44.44.65.97.65,1.6s-.22,1.16-.65,1.6M261.6,56c.29.3.66.44,1.09.44s.8-.15,1.09-.44c.3-.29.44-.67.44-1.11s-.15-.82-.44-1.11c-.29-.3-.66-.44-1.09-.44s-.8.15-1.09.44c-.3.3-.44.67-.44,1.11s.15.82.44,1.11"/>
  <path class="st0" d="M271.31,54.81c.19.1.34.24.45.41.11.17.16.37.16.6,0,.36-.13.65-.38.89s-.56.35-.92.35h-1.86v-4.34h1.72c.36,0,.66.12.9.34.25.23.37.51.37.86,0,.38-.15.67-.44.89M270.48,53.39h-1.01v1.14h1.01c.16,0,.29-.05.4-.16.11-.11.16-.25.16-.41s-.05-.3-.16-.41c-.11-.11-.24-.16-.4-.16M270.61,56.39c.16,0,.3-.06.42-.18.11-.12.17-.26.17-.43s-.06-.31-.17-.43c-.11-.12-.25-.18-.42-.18h-1.15v1.21h1.15Z"/>
  <path class="st0" d="M275.81,57.06l-.92-1.58h-.84v1.58h-.71v-4.34h1.73c.39,0,.72.14.99.41.27.27.41.6.41.99,0,.28-.08.53-.24.76-.16.23-.37.4-.62.5l.98,1.69h-.78ZM274.05,53.39v1.45h1.02c.19,0,.35-.07.48-.21.13-.14.2-.31.2-.51s-.07-.37-.2-.51c-.13-.14-.29-.21-.48-.21h-1.02Z"/>
  <path class="st0" d="M280.77,57.06l-.31-.87h-1.84l-.3.87h-.78l1.57-4.34h.86l1.57,4.34h-.77ZM278.85,55.52h1.37l-.68-1.96-.69,1.96Z"/>
  <path class="st0" d="M284.14,57.14c-.42,0-.77-.09-1.06-.28-.29-.19-.49-.45-.61-.78l.61-.36c.17.49.53.73,1.08.73.27,0,.47-.05.6-.16.14-.1.2-.24.2-.41s-.07-.31-.22-.4c-.15-.09-.4-.19-.77-.31-.2-.07-.37-.14-.5-.18-.13-.05-.27-.12-.41-.22-.14-.1-.25-.22-.32-.36-.07-.14-.11-.31-.11-.51,0-.38.14-.69.41-.91.27-.22.6-.34.98-.34.35,0,.65.08.91.25.26.17.46.4.6.7l-.6.35c-.18-.4-.49-.61-.91-.61-.21,0-.37.05-.5.14-.12.1-.19.23-.19.39s.06.28.19.37c.13.09.36.19.69.29.16.06.28.11.36.13.08.03.18.07.32.12.14.05.25.11.32.17l.22.22c.08.09.14.19.17.3.03.11.05.24.05.38,0,.39-.14.7-.42.93-.28.23-.65.34-1.11.34"/>
  <rect class="st0" x="287.06" y="52.72" width=".71" height="4.34"/>
  <polygon class="st0" points="290.16 56.38 291.93 56.38 291.93 57.06 289.45 57.06 289.45 52.72 290.16 52.72 290.16 56.38"/>
  <polygon class="st0" points="293.97 56.38 295.89 56.38 295.89 57.06 293.26 57.06 293.26 52.72 295.86 52.72 295.86 53.4 293.97 53.4 293.97 54.53 295.71 54.53 295.71 55.21 293.97 55.21 293.97 56.38"/>
  <rect class="st0" x="297.35" y="52.72" width=".71" height="4.34"/>
  <path class="st0" d="M302.21,57.06l-.92-1.58h-.84v1.58h-.71v-4.34h1.73c.39,0,.72.14.99.41.27.27.41.6.41.99,0,.28-.08.53-.24.76-.16.23-.37.4-.62.5l.98,1.69h-.78ZM300.45,53.39v1.45h1.02c.19,0,.35-.07.48-.21.13-.14.2-.31.2-.51s-.07-.37-.2-.51c-.13-.14-.29-.21-.48-.21h-1.02Z"/>
  <path class="st0" d="M307.93,56.49c-.44.44-.97.65-1.6.65s-1.16-.22-1.59-.65c-.44-.44-.65-.97-.65-1.6s.22-1.16.65-1.6c.44-.44.97-.65,1.59-.65s1.16.22,1.6.65c.44.44.65.97.65,1.6s-.22,1.16-.65,1.6M305.25,56c.29.3.66.44,1.09.44s.8-.15,1.09-.44c.3-.29.44-.67.44-1.11s-.15-.82-.44-1.11c-.29-.3-.66-.44-1.09-.44s-.8.15-1.09.44c-.3.3-.44.67-.44,1.11s.15.82.44,1.11"/>
  <path class="st0" d="M223.82,6.13v.45c0,1.79-1.2,2.95-2.78,2.95-1.68,0-3.01-1.32-3.01-2.99s1.33-3.01,3-3.01c1.05,0,2.02.54,2.55,1.42l-1.32.78c-.25-.46-.72-.72-1.26-.72-.84,0-1.44.65-1.44,1.53s.6,1.48,1.47,1.48c.61,0,.99-.3,1.13-.67h-1.54v-1.22h3.19Z"/>
  <path class="st0" d="M225.73,6.53c0-1.67,1.33-3,3.01-3s2.99,1.33,2.99,3-1.33,3-2.99,3-3.01-1.33-3.01-3M230.07,6.53c0-.81-.58-1.42-1.33-1.42s-1.36.61-1.36,1.42.59,1.42,1.36,1.42,1.33-.61,1.33-1.42"/>
  <polygon class="st0" points="238.98 3.66 236.73 9.39 235.19 9.39 232.98 3.66 234.64 3.66 235.97 7.19 237.32 3.66 238.98 3.66"/>
  <polygon class="st0" points="242.33 5.06 242.33 5.91 244.01 5.91 244.01 7.14 242.33 7.14 242.33 7.99 244.88 7.99 244.88 9.39 240.78 9.39 240.78 3.66 244.88 3.66 244.88 5.06 242.33 5.06"/>
  <path class="st0" d="M249.23,7.41h-.65v1.98h-1.53V3.66h2.77c1.12,0,1.98.8,1.98,1.86,0,.73-.4,1.34-1,1.66l1.27,2.21h-1.71l-1.14-1.98ZM248.58,6.11h1.08c.36,0,.59-.25.59-.53s-.22-.54-.59-.54h-1.08v1.07Z"/>
  <polygon class="st0" points="259.13 3.66 259.13 9.39 257.82 9.39 255.51 6.38 255.51 9.39 253.98 9.39 253.98 3.66 255.28 3.66 257.6 6.69 257.6 3.66 259.13 3.66"/>
  <path class="st0" d="M261.14,6.53c0-1.67,1.33-3,3.01-3s2.99,1.33,2.99,3-1.33,3-2.99,3-3.01-1.33-3.01-3M265.48,6.53c0-.81-.58-1.42-1.33-1.42s-1.36.61-1.36,1.42.59,1.42,1.36,1.42,1.33-.61,1.33-1.42"/>
  <path class="st0" d="M279.87,6.53c0,1.64-1.31,2.87-3.06,2.87h-2.34V3.66h2.34c1.74,0,3.06,1.22,3.06,2.87M278.27,6.53c0-.83-.62-1.37-1.53-1.37h-.7v2.75h.7c.91,0,1.53-.54,1.53-1.37"/>
  <path class="st0" d="M281.27,6.53c0-1.67,1.33-3,3.01-3s2.99,1.33,2.99,3-1.33,3-2.99,3-3.01-1.33-3.01-3M285.61,6.53c0-.81-.58-1.42-1.33-1.42s-1.36.61-1.36,1.42.59,1.42,1.36,1.42,1.33-.61,1.33-1.42"/>
  <path class="st8" d="M256.9,46c0-6.08-4.93-11.01-11.01-11.01s-11.01,4.93-11.01,11.01h22.02Z"/>
  <polygon class="st6" points="225.87 34.05 214.03 15.82 214.03 34.05 225.87 34.05"/>
  <rect class="st6" x="191.12" y="27.93" width="10.44" height="18.07"/>
  <rect class="st6" x="293.73" y="15.82" width="10.44" height="20.05"/>
  <rect class="st8" x="304.17" y="35.86" width="10.44" height="10.14"/>
  <polygon class="st4" points="227.93 46 230.66 41.41 225.87 34.05 214.03 34.05 214.03 46 227.93 46"/>
  <rect class="st4" x="281.53" y="15.82" width="10.44" height="30.18"/>
  <path class="st8" d="M203.98,15.82h-2.42v12.11h2.42c3.34,0,6.05-2.71,6.05-6.06s-2.71-6.06-6.05-6.06"/>
  <rect class="st8" x="268.48" y="15.82" width="11.29" height="10.98"/>
  <path class="st6" d="M271.93,26.79h-3.45v19.21h3.45c5.3,0,9.6-4.3,9.6-9.6s-4.3-9.6-9.6-9.6"/>
  <path class="st4" d="M265.32,15.82c-3.71,0-6.71,3-6.71,6.71s3,6.71,6.71,6.71h3.16v-13.42h-3.16Z"/>
  <path class="st5" d="M204.99,27.93h-3.43v18.07h3.43c4.99,0,9.04-4.05,9.04-9.04s-4.05-9.04-9.04-9.04"/>
  <path class="st8" d="M225.87,15.82h-11.84l11.84,18.23c5.03,0,9.11-4.08,9.11-9.11s-4.08-9.12-9.11-9.12"/>
  <rect class="st4" x="191.12" y="15.82" width="10.44" height="12.11"/>
  <polygon class="st5" points="258.61 29.23 258.61 37.22 263.84 46 268.48 46 268.48 29.23 258.61 29.23"/>
  <polygon class="st10" points="258.61 37.22 258.61 46 263.84 46 258.61 37.22"/>
  <rect class="st10" x="293.73" y="35.86" width="10.44" height="10.14"/>
  <polygon class="st10" points="227.93 46 233.65 46 230.66 41.41 227.93 46"/>
  <path class="st6" d="M258.61,46v-8.78l-12.73-21.4-15.22,25.59,2.98,4.59h1.22c0-6.08,4.93-11.01,11.01-11.01s11.01,4.93,11.01,11.01h1.72Z"/>
  <polygon class="st9" points="94.42 27.4 94.42 23.08 92.64 26.36 92.08 26.36 90.29 23.08 90.29 27.4 89.33 27.4 89.33 21.34 90.35 21.34 92.36 25.05 94.36 21.34 95.39 21.34 95.39 27.4 94.42 27.4"/>
  <rect class="st9" x="98.46" y="21.34" width=".96" height="6.06"/>
  <polygon class="st9" points="103.44 23.12 103.44 27.4 102.49 27.4 102.49 21.34 103.27 21.34 106.71 25.72 106.71 21.35 107.67 21.35 107.67 27.4 106.83 27.4 103.44 23.12"/>
  <rect class="st9" x="110.74" y="21.34" width=".96" height="6.06"/>
  <path class="st9" d="M118.35,22.77c-.13-.14-.35-.28-.67-.42-.32-.13-.64-.2-.97-.2-.39,0-.69.07-.89.22-.2.14-.29.35-.29.62l.03.23.09.17.16.15.2.12c.07.03.16.07.28.11.12.04.23.07.33.09.1.03.23.06.4.1.27.06.49.13.69.19.19.06.37.14.55.24.17.09.31.2.42.32.11.12.19.26.25.43.06.17.09.36.09.58,0,.24-.04.46-.11.65-.08.2-.18.36-.31.49-.14.14-.29.25-.49.34-.19.09-.39.16-.61.2-.22.04-.45.06-.7.06-.47,0-.91-.07-1.34-.21-.43-.14-.82-.34-1.16-.61l.44-.82c.17.18.46.35.86.53.39.17.8.25,1.22.25.38,0,.67-.07.87-.2.21-.13.31-.32.31-.58,0-.1-.02-.19-.05-.27l-.16-.22-.23-.17c-.08-.05-.19-.1-.34-.14-.15-.05-.28-.09-.4-.13-.12-.03-.29-.08-.49-.13-.32-.08-.59-.17-.79-.25-.21-.09-.39-.19-.55-.32-.16-.12-.28-.27-.35-.44-.07-.17-.11-.37-.11-.61,0-.29.06-.55.17-.79.11-.23.26-.43.46-.58.2-.15.43-.27.7-.35.27-.08.55-.12.87-.12.74,0,1.42.23,2.05.68l-.43.78Z"/>
  <polygon class="st9" points="126.14 22.19 124.12 22.19 124.12 27.4 123.15 27.4 123.15 22.19 121.14 22.19 121.14 21.34 126.14 21.34 126.14 22.19"/>
  <path class="st9" d="M132.81,26.55v.85h-4.16v-6.06h4.08v.84h-3.13v1.72h2.7v.8h-2.7v1.85h3.2ZM131.11,20.72l-.62-.19.49-.94h.9l-.77,1.13Z"/>
  <path class="st9" d="M135.5,27.4v-6.06h2.64c.26,0,.51.06.75.17.24.11.44.26.6.45.16.18.29.4.38.63.09.24.14.48.14.72,0,.41-.11.78-.32,1.12-.22.33-.5.56-.86.67l1.42,2.31h-1.08l-1.32-2.11h-1.41v2.11h-.96ZM136.46,24.45h1.68c.27,0,.48-.11.65-.33.17-.22.26-.49.26-.8s-.1-.57-.29-.79c-.19-.22-.42-.33-.67-.33h-1.62v2.26Z"/>
  <rect class="st9" x="142.85" y="21.34" width=".96" height="6.06"/>
  <path class="st9" d="M146.49,24.37c0-.4.07-.78.22-1.16.15-.38.35-.7.61-.98s.57-.51.93-.67c.37-.17.75-.26,1.16-.26s.81.09,1.18.27c.37.17.67.41.92.7.25.29.44.62.58.99.14.37.21.74.21,1.12,0,.4-.07.79-.22,1.16-.15.37-.35.7-.6.98-.26.28-.56.51-.92.67-.37.17-.75.25-1.16.25-.34,0-.66-.06-.97-.17-.3-.12-.57-.27-.81-.47-.23-.2-.43-.43-.6-.68-.17-.26-.3-.54-.39-.84-.09-.3-.13-.61-.13-.92M149.4,26.58c.29,0,.57-.06.81-.19.25-.13.45-.29.61-.51.16-.21.28-.44.37-.7.08-.26.13-.53.13-.81s-.04-.56-.14-.83-.22-.5-.38-.7-.37-.37-.61-.49c-.24-.12-.51-.18-.79-.18s-.57.06-.82.19c-.25.12-.45.29-.61.5-.16.21-.29.44-.38.71-.09.26-.13.53-.13.8,0,.39.08.74.23,1.08.15.33.38.61.68.82.3.21.64.32,1.02.32"/>
  <path class="st9" d="M158.81,27.4v-6.06h2.15c.47,0,.9.08,1.28.23.38.16.69.38.93.65.24.28.43.6.55.96.13.36.19.76.19,1.18,0,.92-.27,1.65-.81,2.21-.54.55-1.25.83-2.15.83h-2.15ZM160.96,22.19h-1.19v4.37h1.19c.42,0,.78-.1,1.08-.29.3-.19.52-.45.67-.78.15-.33.23-.7.23-1.12,0-.65-.17-1.17-.52-1.57-.35-.4-.84-.6-1.45-.6"/>
  <path class="st9" d="M168.16,21.34h.91l2.35,6.06h-1.01l-.64-1.65h-2.34l-.64,1.65h-1.02l2.38-6.06ZM169.59,25.05l-.98-2.65-1,2.65h1.98Z"/>
  <path class="st9" d="M140.47,35.3l-.1-.06s-.13-.07-.26-.13c-.13-.06-.25-.12-.38-.17-.12-.05-.26-.09-.43-.13-.16-.04-.31-.06-.45-.06-.32,0-.49.1-.49.3l.02.12.08.1.12.08.17.07.2.07c.05.02.14.04.26.08.11.03.2.06.28.09.25.08.45.15.62.22.17.07.34.16.5.26.16.1.29.22.39.35.1.12.17.27.23.45.06.18.09.38.09.6,0,.28-.04.53-.13.76-.09.22-.21.41-.35.55-.15.14-.32.26-.52.36-.2.09-.41.16-.62.2-.21.04-.44.06-.67.06-.43,0-.9-.06-1.37-.19-.48-.13-.9-.3-1.26-.52l.72-1.46.11.07c.05.03.15.08.3.16.15.08.3.15.45.21.15.06.32.11.52.16.2.05.39.07.56.07.32,0,.48-.09.48-.26l-.06-.18c-.04-.05-.11-.1-.2-.14-.1-.04-.19-.08-.28-.11-.09-.03-.22-.07-.38-.12-.17-.05-.3-.09-.41-.12-.55-.18-.94-.4-1.18-.66-.24-.26-.36-.61-.36-1.04,0-.32.06-.62.18-.88.12-.26.29-.48.5-.65.21-.17.45-.29.72-.38.27-.09.56-.13.86-.13.64,0,1.4.22,2.27.66l-.72,1.37Z"/>
  <path class="st9" d="M145.02,33.32h1.86l1.93,6.06h-1.69l-.36-1.19h-1.62l-.36,1.19h-1.69l1.94-6.06ZM146.49,37.09l-.54-2.13-.56,2.13h1.1Z"/>
  <path class="st9" d="M153.44,39.43c-.38,0-.72-.05-1.03-.16-.31-.11-.57-.25-.78-.44-.21-.18-.38-.4-.52-.66-.15-.26-.25-.53-.31-.82-.06-.29-.09-.6-.09-.93v-3.11h1.67v3.11c0,.21.02.4.06.58.04.18.1.34.18.48.08.14.19.26.33.34.14.08.3.12.49.12s.35-.04.49-.12c.14-.08.26-.2.34-.35.08-.15.14-.31.18-.48.04-.18.06-.37.06-.57v-3.11h1.66v3.11c0,.43-.05.83-.17,1.19-.11.36-.28.67-.5.95-.22.27-.5.48-.86.63-.35.15-.76.23-1.22.23M153.95,33.06l-1.02-.27.42-1.21h1.44l-.84,1.48Z"/>
  <path class="st9" d="M158.84,39.38v-6.06h2.33c.49,0,.93.08,1.32.23.39.16.72.38.97.65.25.27.44.59.57.96.13.36.2.75.2,1.18,0,.92-.28,1.65-.84,2.21-.55.56-1.3.83-2.22.83h-2.33ZM161.16,34.77h-.67v3.16h.67c.43,0,.76-.15,1-.44.24-.29.36-.68.36-1.15s-.12-.85-.36-1.14c-.25-.29-.58-.43-1-.43"/>
  <polygon class="st9" points="170.97 37.93 170.97 39.38 166.65 39.38 166.65 33.32 170.89 33.32 170.89 34.77 168.32 34.77 168.32 35.63 170.52 35.63 170.52 36.97 168.32 36.97 168.32 37.93 170.97 37.93"/>
</svg>