<?xml version="1.0" encoding="UTF-8"?>
<svg xmlns="http://www.w3.org/2000/svg" version="1.1" xmlns:xlink="http://www.w3.org/1999/xlink" viewBox="0 0 351.03 76.11">
  <!-- Generator: Adobe Illustrator 30.0.0, SVG Export Plug-In . SVG Version: 2.1.1 Build 123)  -->
  <defs>
    <style>
      .st0, .st1 {
        fill: #fff;
      }

      .st1 {
        fill-rule: evenodd;
      }

      .st2 {
        fill: none;
      }

      .st3 {
        clip-path: url(#clippath-1);
      }

      .st4 {
        display: none;
      }

      .st5 {
        clip-path: url(#clippath);
      }
    </style>
    <clipPath id="clippath">
      <rect class="st2" x="-254.16" y="-314.59" width="841.89" height="595.28"/>
    </clipPath>
    <clipPath id="clippath-1">
      <rect class="st2" x="-254.16" y="-314.59" width="841.89" height="595.28"/>
    </clipPath>
  </defs>
  <g id="Camada_1" class="st4">
    <rect width="351.03" height="76.11"/>
  </g>
  <g id="Camada_2">
    <g>
      <g class="st5">
        <path class="st0" d="M255,8.96h1.19c.41,0,.65.28.65.6s-.25.59-.65.59h-1.19v-1.19Z"/>
        <rect class="st0" x="294.13" y="21.45" width="11.89" height="11.55"/>
        <polygon class="st0" points="293.54 54.24 293.54 36.29 283.22 36.29 283.22 44.74 288.87 54.24 293.54 54.24"/>
        <path class="st0" d="M293.54,35.69v-14.24h-3.2c-3.93,0-7.12,3.2-7.12,7.12s3.19,7.12,7.12,7.12h3.2Z"/>
        <polygon class="st0" points="283.22 54.24 288.18 54.24 283.22 45.9 283.22 54.24"/>
        <rect class="st0" x="322.05" y="21.45" width="10.95" height="21.58"/>
        <path class="st0" d="M277.17,46.06c-2.24-2.2-5.19-3.41-8.32-3.41s-6.08,1.21-8.32,3.41c-2.22,2.18-3.48,5.08-3.56,8.18h23.76c-.08-3.1-1.34-6-3.56-8.18"/>
        <path class="st0" d="M297.65,33.59h-3.52v20.65h3.52c5.69,0,10.32-4.63,10.32-10.33s-4.63-10.32-10.32-10.32"/>
        <path class="st0" d="M268.85,42.06c3.28,0,6.39,1.27,8.74,3.58,2.33,2.29,3.66,5.34,3.73,8.6h1.31v-9.34l-13.78-23.17-16.49,27.72,3.11,4.79h.9c.08-3.25,1.4-6.31,3.73-8.6,2.35-2.31,5.45-3.58,8.74-3.58"/>
        <rect class="st0" x="333.6" y="43.62" width="10.95" height="10.62"/>
        <rect class="st0" x="308.56" y="21.45" width="10.95" height="32.79"/>
        <path class="st0" d="M256.5,31.23c0-5.39-4.39-9.78-9.79-9.78h-12.55l12.71,19.57c5.31-.08,9.62-4.47,9.62-9.78"/>
        <rect class="st0" x="322.05" y="43.62" width="10.95" height="10.62"/>
        <polygon class="st0" points="252.02 50.02 249.51 54.24 254.77 54.24 252.02 50.02"/>
        <rect class="st0" x="208.58" y="34.84" width="10.95" height="19.4"/>
        <path class="st0" d="M220.12,21.45v12.8h2.38c3.53,0,6.4-2.87,6.4-6.4s-2.87-6.4-6.4-6.4h-2.38Z"/>
        <polygon class="st0" points="233.91 41.02 246.17 41.02 233.91 22.15 233.91 41.02"/>
        <polygon class="st0" points="246.55 41.61 233.91 41.61 233.91 54.24 248.83 54.24 251.66 49.47 246.55 41.61"/>
        <rect class="st0" x="208.58" y="21.45" width="10.95" height="12.8"/>
        <path class="st0" d="M223.62,34.84h-3.5v19.4h3.5c5.35,0,9.7-4.35,9.7-9.7s-4.35-9.7-9.7-9.7"/>
        <polygon class="st0" points="100.5 33.85 100.5 29.06 98.52 32.7 97.9 32.7 95.9 29.06 95.9 33.85 94.84 33.85 94.84 27.12 95.98 27.12 98.21 31.24 100.44 27.12 101.58 27.12 101.58 33.85 100.5 33.85"/>
        <rect class="st0" x="104.99" y="27.12" width="1.06" height="6.73"/>
        <polygon class="st0" points="110.53 29.09 110.53 33.85 109.47 33.85 109.47 27.12 110.34 27.12 114.15 31.99 114.15 27.13 115.22 27.13 115.22 33.85 114.29 33.85 110.53 29.09"/>
        <rect class="st0" x="118.64" y="27.12" width="1.06" height="6.73"/>
        <path class="st0" d="M127.09,28.7c-.15-.16-.39-.32-.74-.46-.35-.15-.71-.22-1.08-.22-.44,0-.77.08-.99.24-.22.16-.33.39-.33.69,0,.09.01.18.04.25l.1.2.17.16.23.13c.07.04.18.08.31.12.13.04.25.08.37.11.11.03.26.07.45.11.3.07.55.14.76.21.21.07.41.16.61.26.2.11.35.23.47.36.12.13.21.29.28.48.07.19.1.4.1.64,0,.27-.04.51-.13.73-.08.22-.2.4-.35.55-.15.15-.33.27-.54.37-.21.1-.43.17-.68.22-.24.04-.5.07-.78.07-.51,0-1.01-.08-1.49-.23-.48-.16-.91-.38-1.29-.68l.49-.91c.19.2.51.39.95.58.44.19.89.28,1.36.28.42,0,.74-.07.97-.22.23-.15.34-.36.34-.64,0-.11-.02-.21-.05-.3-.04-.09-.09-.17-.18-.24l-.26-.19c-.09-.05-.21-.11-.38-.16-.16-.05-.31-.1-.44-.14-.14-.04-.32-.09-.55-.14-.35-.09-.65-.19-.88-.28-.23-.1-.44-.21-.61-.35-.18-.14-.31-.3-.39-.49-.08-.19-.12-.42-.12-.68,0-.32.06-.62.19-.88.13-.26.3-.48.52-.64.22-.17.48-.3.77-.39.29-.09.62-.13.97-.13.83,0,1.59.25,2.28.76l-.48.87Z"/>
        <polygon class="st0" points="135.74 28.06 133.51 28.06 133.51 33.85 132.43 33.85 132.43 28.06 130.19 28.06 130.19 27.12 135.74 27.12 135.74 28.06"/>
        <path class="st0" d="M141.27,26.43l-.68-.21.54-1.04h.99l-.85,1.25ZM143.16,32.91v.94h-4.62v-6.73h4.53v.94h-3.47v1.91h3.01v.88h-3.01v2.06h3.56Z"/>
        <path class="st0" d="M147.21,30.57h1.86c.29,0,.54-.12.73-.37.19-.25.29-.54.29-.89s-.11-.64-.32-.88c-.22-.25-.47-.37-.75-.37h-1.8v2.51ZM146.15,33.85v-6.73h2.93c.29,0,.57.06.84.19.27.13.49.29.67.5.18.21.32.44.43.7.11.26.16.53.16.8,0,.46-.12.87-.36,1.24-.24.37-.56.62-.96.74l1.58,2.56h-1.2l-1.46-2.34h-1.57v2.34h-1.06Z"/>
        <rect class="st0" x="154.32" y="27.12" width="1.06" height="6.73"/>
        <path class="st0" d="M161.6,32.94c.33,0,.63-.07.9-.21s.5-.33.68-.56c.18-.23.31-.49.41-.78.1-.29.15-.59.15-.89s-.05-.62-.15-.92c-.1-.29-.25-.56-.43-.78-.18-.23-.41-.41-.67-.54-.27-.13-.56-.2-.88-.2s-.63.07-.91.21c-.28.14-.5.33-.68.56-.18.23-.32.49-.42.78-.1.29-.15.59-.15.89,0,.43.09.82.26,1.2.17.37.42.67.76.91.33.24.71.35,1.14.35M158.37,30.49c0-.44.08-.87.25-1.29.17-.42.39-.78.67-1.09.29-.31.63-.56,1.03-.75.4-.19.83-.28,1.29-.28s.9.1,1.31.3c.41.2.75.46,1.02.78.27.32.49.69.65,1.1.16.41.24.83.24,1.25s-.08.87-.25,1.29c-.16.41-.39.78-.67,1.09-.28.31-.62.56-1.03.75-.41.19-.83.28-1.29.28-.38,0-.73-.06-1.07-.19-.34-.12-.64-.3-.9-.51-.26-.22-.48-.47-.67-.76-.19-.29-.34-.6-.43-.93-.1-.34-.15-.67-.15-1.02"/>
        <path class="st0" d="M174.45,28.06h-1.33v4.85h1.33c.46,0,.86-.11,1.2-.32.34-.21.59-.5.75-.87.17-.36.25-.78.25-1.24,0-.72-.2-1.3-.59-1.75-.39-.45-.93-.67-1.61-.67M172.06,33.85v-6.73h2.39c.53,0,1,.09,1.42.26.42.17.77.42,1.04.72.27.31.47.66.61,1.07.14.4.21.84.21,1.31,0,1.02-.3,1.84-.9,2.45-.6.61-1.39.92-2.39.92h-2.39Z"/>
        <path class="st0" d="M184.03,31.24l-1.08-2.95-1.12,2.95h2.2ZM182.44,27.12h1l2.62,6.74h-1.12l-.71-1.83h-2.6l-.7,1.83h-1.13l2.64-6.74Z"/>
        <path class="st0" d="M151.68,42.63l-.11-.06s-.14-.08-.28-.15c-.14-.07-.28-.13-.42-.19-.14-.05-.29-.1-.47-.15-.18-.04-.35-.07-.5-.07-.36,0-.54.11-.54.33l.02.13.09.11.13.09.19.08.22.07c.06.02.16.05.28.09.13.04.23.07.31.1.27.08.5.16.69.25.19.08.38.18.55.29.18.12.32.24.43.38.11.14.19.31.26.5.06.2.09.42.09.66,0,.31-.05.59-.15.84-.1.25-.23.45-.39.61-.16.16-.36.29-.58.4-.23.11-.45.18-.69.22-.23.04-.48.07-.75.07-.48,0-.99-.07-1.52-.22-.53-.14-1-.33-1.4-.57l.8-1.62.13.08c.05.03.17.09.33.18.17.08.33.16.5.22.16.07.36.12.58.18s.43.08.62.08c.36,0,.54-.1.54-.3l-.07-.2c-.05-.06-.12-.11-.23-.16-.11-.05-.21-.09-.31-.12-.1-.03-.24-.08-.42-.13-.18-.05-.34-.1-.46-.14-.6-.2-1.04-.45-1.31-.74-.27-.28-.4-.67-.4-1.15,0-.36.07-.69.21-.98.14-.29.32-.53.56-.72.23-.18.5-.33.8-.43.3-.1.62-.15.95-.15.72,0,1.56.24,2.52.73l-.8,1.53Z"/>
        <path class="st0" d="M158.36,44.62l-.6-2.37-.63,2.37h1.22ZM156.73,40.43h2.06l2.15,6.74h-1.88l-.41-1.32h-1.8l-.4,1.32h-1.88l2.15-6.74Z"/>
        <path class="st0" d="M166.65,40.15l-1.14-.3.47-1.35h1.6l-.93,1.65ZM166.08,47.22c-.42,0-.8-.06-1.14-.17-.34-.12-.63-.28-.86-.48-.23-.21-.43-.45-.58-.73-.16-.28-.27-.59-.34-.91-.07-.32-.11-.67-.11-1.03v-3.46h1.85v3.46c0,.23.02.45.07.64.04.2.11.38.2.54.09.16.21.28.37.38.15.09.34.14.54.14s.39-.05.55-.14c.16-.09.28-.22.37-.38.09-.16.16-.34.21-.54.04-.2.07-.41.07-.63v-3.46h1.85v3.46c0,.48-.06.92-.18,1.31-.12.4-.31.75-.55,1.05-.24.3-.56.54-.96.71-.39.17-.85.25-1.35.25"/>
        <path class="st0" d="M174.67,42.05h-.74v3.51h.74c.47,0,.85-.16,1.11-.49.27-.33.4-.75.4-1.27s-.14-.95-.41-1.27c-.27-.32-.64-.48-1.11-.48M172.08,47.17v-6.73h2.59c.55,0,1.04.09,1.47.26.44.17.79.42,1.07.72.28.31.49.66.63,1.07.15.4.22.84.22,1.31,0,1.02-.31,1.84-.93,2.45-.62.61-1.44.92-2.47.92h-2.59Z"/>
        <polygon class="st0" points="185.57 45.56 185.57 47.17 180.77 47.17 180.77 40.43 185.48 40.43 185.48 42.04 182.61 42.04 182.61 42.99 185.06 42.99 185.06 44.49 182.61 44.49 182.61 45.56 185.57 45.56"/>
        <path class="st0" d="M216.73,62.76c.66,0,1.21.23,1.64.69.44.46.65,1.03.65,1.71s-.22,1.24-.65,1.71c-.44.46-.98.7-1.64.7h-1.89v-4.8h1.89ZM216.73,66.8c.45,0,.82-.16,1.11-.47.29-.31.43-.7.43-1.18s-.14-.87-.43-1.18c-.29-.31-.65-.46-1.11-.46h-1.1v3.29h1.1Z"/>
        <path class="st0" d="M224.65,66.92c-.48.48-1.07.72-1.77.72s-1.28-.24-1.77-.72c-.48-.48-.72-1.07-.72-1.77s.24-1.29.72-1.77c.48-.48,1.07-.72,1.77-.72s1.28.24,1.77.72c.48.48.72,1.07.72,1.77s-.24,1.28-.72,1.77M221.68,66.39c.33.33.73.49,1.21.49s.88-.16,1.21-.49c.33-.33.49-.74.49-1.23s-.16-.9-.49-1.23c-.33-.33-.73-.49-1.21-.49s-.88.16-1.21.49c-.33.33-.49.74-.49,1.23s.16.9.49,1.23"/>
        <polygon class="st0" points="230.38 66.8 232.34 66.8 232.34 67.56 229.6 67.56 229.6 62.76 230.38 62.76 230.38 66.8"/>
        <path class="st0" d="M237.08,67.56l-.34-.97h-2.04l-.34.97h-.86l1.74-4.8h.95l1.74,4.8h-.85ZM234.96,65.85h1.52l-.76-2.17-.76,2.17Z"/>
        <path class="st0" d="M241.22,62.76c.66,0,1.21.23,1.64.69.44.46.65,1.03.65,1.71s-.22,1.24-.65,1.71c-.44.46-.98.7-1.64.7h-1.89v-4.8h1.89ZM241.22,66.8c.45,0,.82-.16,1.11-.47.29-.31.43-.7.43-1.18s-.14-.87-.43-1.18c-.29-.31-.65-.46-1.11-.46h-1.1v3.29h1.1Z"/>
        <path class="st0" d="M249.15,66.92c-.48.48-1.07.72-1.77.72s-1.28-.24-1.77-.72c-.48-.48-.72-1.07-.72-1.77s.24-1.29.72-1.77c.48-.48,1.07-.72,1.77-.72s1.28.24,1.77.72c.48.48.72,1.07.72,1.77s-.24,1.28-.72,1.77M246.17,66.39c.33.33.73.49,1.21.49s.88-.16,1.21-.49c.33-.33.49-.74.49-1.23s-.16-.9-.49-1.23c-.33-.33-.73-.49-1.21-.49s-.88.16-1.21.49c-.33.33-.49.74-.49,1.23s.16.9.49,1.23"/>
        <path class="st0" d="M255.98,62.76c.66,0,1.21.23,1.64.69.44.46.65,1.03.65,1.71s-.22,1.24-.65,1.71c-.44.46-.98.7-1.64.7h-1.89v-4.8h1.89ZM255.98,66.8c.45,0,.82-.16,1.11-.47.29-.31.43-.7.43-1.18s-.14-.87-.43-1.18c-.29-.31-.65-.46-1.11-.46h-1.1v3.29h1.1Z"/>
        <path class="st0" d="M263.91,66.92c-.48.48-1.07.72-1.77.72s-1.28-.24-1.77-.72c-.48-.48-.72-1.07-.72-1.77s.24-1.29.72-1.77c.48-.48,1.07-.72,1.77-.72s1.28.24,1.77.72c.48.48.72,1.07.72,1.77s-.24,1.28-.72,1.77M260.93,66.39c.33.33.73.49,1.21.49s.88-.16,1.21-.49c.33-.33.49-.74.49-1.23s-.16-.9-.49-1.23c-.33-.33-.73-.49-1.21-.49s-.88.16-1.21.49c-.33.33-.49.74-.49,1.23s.16.9.49,1.23"/>
        <path class="st0" d="M270.62,62.76c.45,0,.83.15,1.14.45.3.3.45.68.45,1.12s-.15.82-.45,1.12c-.3.3-.68.46-1.14.46h-.98v1.65h-.79v-4.8h1.77ZM270.62,65.17c.23,0,.42-.08.58-.24.15-.16.23-.36.23-.6s-.08-.44-.23-.6c-.15-.16-.34-.24-.58-.24h-.98v1.67h.98Z"/>
        <path class="st0" d="M277.76,66.92c-.48.48-1.07.72-1.77.72s-1.28-.24-1.77-.72c-.48-.48-.72-1.07-.72-1.77s.24-1.29.72-1.77c.48-.48,1.07-.72,1.77-.72s1.28.24,1.77.72c.48.48.72,1.07.72,1.77s-.24,1.28-.72,1.77M274.79,66.39c.33.33.73.49,1.21.49s.88-.16,1.21-.49c.33-.33.49-.74.49-1.23s-.16-.9-.49-1.23c-.33-.33-.73-.49-1.21-.49s-.88.16-1.21.49c-.33.33-.49.74-.49,1.23s.16.9.49,1.23"/>
        <polygon class="st0" points="281.11 67.56 279.45 62.76 280.31 62.76 281.59 66.6 282.87 62.76 283.73 62.76 282.06 67.56 281.11 67.56"/>
        <path class="st0" d="M288.95,66.92c-.48.48-1.07.72-1.77.72s-1.28-.24-1.77-.72c-.48-.48-.72-1.07-.72-1.77s.24-1.29.72-1.77c.48-.48,1.07-.72,1.77-.72s1.28.24,1.77.72c.48.48.72,1.07.72,1.77s-.24,1.28-.72,1.77M285.97,66.39c.33.33.73.49,1.21.49s.88-.16,1.21-.49c.33-.33.49-.74.49-1.23s-.16-.9-.49-1.23c-.33-.33-.73-.49-1.21-.49s-.88.16-1.21.49c-.33.33-.49.74-.49,1.23s.16.9.49,1.23"/>
        <path class="st0" d="M296.71,65.07c.21.11.38.26.49.45.12.19.18.41.18.66,0,.39-.14.72-.42.98s-.62.39-1.02.39h-2.06v-4.8h1.91c.39,0,.73.13,1,.38.27.25.41.57.41.95,0,.42-.16.74-.49.98M295.8,63.5h-1.12v1.26h1.12c.17,0,.32-.06.44-.18.12-.12.18-.27.18-.45s-.06-.33-.18-.45c-.12-.12-.27-.18-.44-.18M295.95,66.82c.18,0,.34-.06.46-.19.13-.13.19-.29.19-.48s-.06-.35-.19-.48c-.13-.13-.28-.2-.46-.2h-1.27v1.34h1.27Z"/>
        <path class="st0" d="M301.7,67.56l-1.01-1.75h-.93v1.75h-.79v-4.8h1.92c.43,0,.79.15,1.09.45.3.3.45.66.45,1.1,0,.31-.09.59-.27.84-.18.25-.41.44-.69.55l1.09,1.87h-.86ZM299.75,63.5v1.61h1.13c.21,0,.39-.08.54-.23.15-.15.22-.35.22-.57s-.07-.41-.22-.57c-.15-.15-.33-.23-.54-.23h-1.13Z"/>
        <path class="st0" d="M307.19,67.56l-.34-.97h-2.04l-.34.97h-.86l1.74-4.8h.95l1.74,4.8h-.85ZM305.07,65.85h1.52l-.76-2.17-.76,2.17Z"/>
        <path class="st0" d="M310.92,67.65c-.46,0-.85-.1-1.18-.32-.32-.21-.55-.5-.68-.86l.68-.4c.19.54.59.81,1.19.81.3,0,.52-.06.67-.18.15-.12.22-.27.22-.46s-.08-.35-.24-.45c-.16-.1-.44-.21-.85-.34-.22-.08-.41-.15-.55-.2-.14-.05-.29-.13-.45-.24-.16-.11-.28-.24-.35-.4-.08-.16-.12-.35-.12-.56,0-.43.15-.76.45-1.01.3-.25.67-.37,1.09-.37.38,0,.72.09,1.01.28.29.19.51.45.66.77l-.66.38c-.2-.45-.54-.67-1.01-.67-.23,0-.41.05-.55.16-.14.11-.2.25-.2.44s.07.31.21.41c.14.1.39.21.76.32.18.07.31.12.39.15.08.03.2.08.36.13.16.06.27.12.35.19.08.06.16.15.25.24.09.1.15.21.19.33.04.12.05.27.05.42,0,.43-.16.78-.47,1.03-.31.25-.72.38-1.23.38"/>
        <rect class="st0" x="314.16" y="62.76" width=".79" height="4.8"/>
        <polygon class="st0" points="317.59 66.8 319.54 66.8 319.54 67.56 316.8 67.56 316.8 62.76 317.59 62.76 317.59 66.8"/>
        <polygon class="st0" points="321.81 66.8 323.94 66.8 323.94 67.56 321.02 67.56 321.02 62.76 323.9 62.76 323.9 63.51 321.81 63.51 321.81 64.76 323.73 64.76 323.73 65.51 321.81 65.51 321.81 66.8"/>
        <rect class="st0" x="325.55" y="62.76" width=".79" height="4.8"/>
        <path class="st0" d="M330.93,67.56l-1.01-1.75h-.93v1.75h-.79v-4.8h1.92c.43,0,.79.15,1.09.45.3.3.45.66.45,1.1,0,.31-.09.59-.27.84-.18.25-.41.44-.69.55l1.09,1.87h-.86ZM328.98,63.5v1.61h1.13c.21,0,.39-.08.54-.23.15-.15.22-.35.22-.57s-.07-.41-.22-.57c-.15-.15-.33-.23-.54-.23h-1.13Z"/>
        <path class="st0" d="M337.27,66.92c-.48.48-1.07.72-1.77.72s-1.28-.24-1.77-.72c-.48-.48-.72-1.07-.72-1.77s.24-1.29.72-1.77c.48-.48,1.07-.72,1.77-.72s1.28.24,1.77.72c.48.48.72,1.07.72,1.77s-.24,1.28-.72,1.77M334.29,66.39c.33.33.73.49,1.21.49s.88-.16,1.21-.49c.33-.33.49-.74.49-1.23s-.16-.9-.49-1.23c-.33-.33-.73-.49-1.21-.49s-.88.16-1.21.49c-.33.33-.49.74-.49,1.23s.16.9.49,1.23"/>
        <path class="st0" d="M244.14,11.17v.5c0,1.98-1.33,3.27-3.08,3.27-1.87,0-3.33-1.46-3.33-3.31s1.48-3.33,3.32-3.33c1.17,0,2.24.6,2.83,1.58l-1.46.87c-.28-.5-.79-.79-1.39-.79-.93,0-1.6.72-1.6,1.69s.66,1.64,1.62,1.64c.67,0,1.1-.34,1.25-.75h-1.71v-1.35h3.54Z"/>
        <path class="st0" d="M246.25,11.61c0-1.85,1.48-3.32,3.33-3.32s3.31,1.47,3.31,3.32-1.47,3.32-3.31,3.32-3.33-1.48-3.33-3.32M251.06,11.61c0-.9-.64-1.57-1.48-1.57s-1.5.67-1.5,1.57.65,1.57,1.5,1.57,1.48-.67,1.48-1.57"/>
        <polygon class="st0" points="260.92 8.44 258.44 14.78 256.73 14.78 254.27 8.44 256.11 8.44 257.59 12.35 259.08 8.44 260.92 8.44"/>
        <polygon class="st0" points="264.63 9.99 264.63 10.93 266.49 10.93 266.49 12.29 264.63 12.29 264.63 13.23 267.46 13.23 267.46 14.78 262.91 14.78 262.91 8.44 267.46 8.44 267.46 9.99 264.63 9.99"/>
        <path class="st0" d="M272.27,12.59h-.72v2.19h-1.69v-6.35h3.07c1.24,0,2.19.89,2.19,2.06,0,.81-.44,1.48-1.11,1.84l1.41,2.45h-1.89l-1.26-2.19ZM271.55,11.14h1.19c.4,0,.65-.28.65-.59s-.24-.6-.65-.6h-1.19v1.18Z"/>
        <polygon class="st0" points="283.23 8.44 283.23 14.78 281.78 14.78 279.22 11.44 279.22 14.78 277.54 14.78 277.54 8.44 278.97 8.44 281.54 11.79 281.54 8.44 283.23 8.44"/>
        <path class="st0" d="M285.45,11.61c0-1.85,1.47-3.32,3.33-3.32s3.31,1.47,3.31,3.32-1.47,3.32-3.31,3.32-3.33-1.48-3.33-3.32M290.26,11.61c0-.9-.64-1.57-1.47-1.57s-1.5.67-1.5,1.57.65,1.57,1.5,1.57,1.47-.67,1.47-1.57"/>
        <path class="st0" d="M306.19,11.61c0,1.82-1.46,3.17-3.39,3.17h-2.58v-6.35h2.58c1.93,0,3.39,1.35,3.39,3.17M304.42,11.61c0-.92-.69-1.52-1.7-1.52h-.77v3.04h.77c1.01,0,1.7-.6,1.7-1.52"/>
        <path class="st0" d="M307.75,11.61c0-1.85,1.47-3.32,3.33-3.32s3.31,1.47,3.31,3.32-1.47,3.32-3.31,3.32-3.33-1.48-3.33-3.32M312.55,11.61c0-.9-.64-1.57-1.47-1.57s-1.5.67-1.5,1.57.65,1.57,1.5,1.57,1.47-.67,1.47-1.57"/>
      </g>
      <g class="st3">
        <path class="st0" d="M13.12,49.16c-.39-.17-.83-.25-.85-.23l.53-.37c.29-.21.68-.52.95-.82h-1.79c-.43.41-.88.8-1.37,1.15l-.09,1.1c.81-.02,2.1.1,2.08,1.18-.01.71-.63,1.04-1.26,1.09-.71-.04-1.44-.47-1.93-.9l-.39,1.57.02.02c1.11.9,3.05,1.04,4.24.21l.14-.09c.65-.46,1.03-1.26,1.02-2.06,0-.44-.16-.89-.43-1.24-.23-.3-.53-.47-.85-.61"/>
        <path class="st0" d="M13.91,47.53c.3-.43.37-.9.35-1.43h-4.63l-.07.3-.28,1.14h4.64Z"/>
        <path class="st1" d="M22.12,43.63c-2.39,0-4.25-1.69-4.25-3.79v-7.15h3.2v7.44c0,.93.82,1.69,1.86,1.69.99,0,1.87-.75,1.87-1.69v-7.44h1.51v7.15c0,2.1-1.86,3.79-4.19,3.79M13.09,39.32l-1.98-.58c-1.22-.41-2.09-1.63-2.09-2.97,0-1.75,1.4-3.13,3.14-3.13h3.9v1.38h-2.74c-.52,0-.99.4-.99.99,0,.35.23.76.64.87l1.92.64c1.29.41,1.98,1.74,1.98,3.26,0,1.92-1.51,3.49-3.43,3.49h-4.13v-1.57h3.55c.52,0,1.11-.52,1.11-1.22,0-.53-.35-.99-.88-1.17M31.27,39.32l-1.99-.58c-1.28-.41-2.15-1.63-2.15-2.97,0-1.75,1.39-3.13,3.14-3.13h3.9v1.38h-2.74c-.53,0-.99.4-.99.99,0,.35.23.76.64.87l1.92.64c1.34.41,2.04,1.74,2.04,3.26,0,1.92-1.58,3.49-3.5,3.49h-4.13v-1.57h3.55c.52,0,1.11-.52,1.11-1.22,0-.53-.29-.99-.81-1.17"/>
        <path class="st1" d="M60.44,44.38h1.36v8.69c-.17-.9-.68-6.19-.61-7.88-.17-.18-.75-.81-.75-.81M50.26,35.1h0l-1.45-1.48c-1.94.03-8.18-.63-10.18-.99v11.17c10.01.99,15.27,1.24,21.13,1.05h.1l-9.6-9.76ZM50.33,31.99h11.19v-10.84h-11.19v10.84ZM41.65,32.64c.74.06,7.29.64,7.73.64l10.37,10.54h13.32v-11.17h-31.41ZM60.49,45.47s-5.98.41-11.06-.05c.1,6.18.85,9.36.97,10.03h11.11c-.53-3.25-.95-8.49-1.02-9.98"/>
        <path class="st0" d="M19,50.07c-.59-1.01-1.7-1.27-2.63-1.84l-1.3-.69h3.89l.32-1.44h-4.09l-.58,3.05,3,1.62c.35.26.55.66.61,1.08.06.41.01.85-.27,1.16.49-.24.96-.55,1.19-1.07.25-.57.17-1.35-.14-1.88"/>
        <path class="st0" d="M17.47,50.97l-2.83,1.42c.01.09.06.17.11.25.21.36.49.71.7,1.07l.38-.02c.7-.09,1.75-.26,2.03-1.01.21-.54.1-1.35-.39-1.71"/>
        <path class="st0" d="M32.03,49.6v-3.43l.09-.09h1.51l.09.09v6.81l-.09.09c-.13,0-.65.07-1.08-.08-.29-.11-.51-.34-.71-.57-.19-.22-.39-.44-.57-.66-.38-.46-.74-.93-1.1-1.4-.21-.28-.42-.58-.66-.84l-.15.06v3.33l-.09.13c-.12.08-1.42.07-1.53,0l-.11-.14v-.05s0-6.41,0-6.41v-.2l.06-.08c.52-.15.99-.04,1.4.32,1.09.94,1.96,2.27,2.77,3.18l.03.03.15-.06Z"/>
        <path class="st0" d="M41.76,49.59c0,2.02-1.63,3.65-3.65,3.65s-3.65-1.63-3.65-3.65,1.63-3.65,3.65-3.65,3.65,1.63,3.65,3.65M37.87,47.54c-.93.11-1.31.79-1.37,1.65-.11,1.42.3,2.65,1.97,2.43,1.23-.16,1.3-1.67,1.2-2.63-.1-.98-.82-1.57-1.8-1.45"/>
        <path class="st0" d="M27.21,53.07h-1.95c-.05-.19-.31-1.08-.44-1.12l-2.79.02-.41,1.1h-1.8l2.68-6.69c.22-.35.83-.32,1.2-.29.37.03.63.12.82.46l2.69,6.52ZM24.28,50.4l-.77-2.15-.87,2.15h1.64Z"/>
        <path class="st0" d="M46.81,47.93c-.65-.24-1.32-.49-2.03-.41-.69.08-.91.65-.23,1,1.13.57,2.51.51,2.67,2.21.26,2.87-3.39,3.19-4.98,1.54v-1.46l.33.17c.11.06.23.12.35.17.68.32,1.43.53,2.19.44.47-.06.39-.62.11-.85-.87-.71-2.66-.69-2.87-2.27-.34-2.58,2.75-3.11,4.46-1.95v1.41Z"/>
      </g>
    </g>
  </g>
</svg>